<svg width="145" height="25" viewBox="0 0 145 25" fill="none" xmlns="http://www.w3.org/2000/svg">
<g clip-path="url(#clip0_510_136)">
<path d="M40.1662 0L33.4718 12.3413V0H30.1247H26.7775H20.0831H13.3887H6.69437L2.87858 7.05219H9.57295L0 24.6827H6.69437L16.2673 7.05219H22.9617L13.3887 24.6827H20.0831L26.7775 12.3413V24.6827H33.4718L40.1662 12.3413V24.6827H46.8606V0H40.1662Z" fill="black"/>
<path d="M62.8936 11.495H58.1741L57.8393 14.3864H62.425L61.9898 18.1241H57.4042L57.0695 20.945H61.9898L61.5547 24.6826H52.5508L54.5256 7.75739H63.3287L62.8936 11.495Z" fill="black"/>
<path d="M79.0607 24.6826H74.3746L72.9353 22.1438C72.4332 21.2271 71.8642 20.0987 71.4291 18.9351C70.9605 19.7814 70.4584 20.5571 69.8224 21.3681L67.3121 24.6826H62.2578L69.2869 15.7616L64.6678 7.75739H69.3873L70.4584 9.732C71.1278 11.0014 71.4626 11.6713 71.9312 12.8702C72.701 11.6361 73.1027 11.0014 73.5378 10.402L75.5127 7.75739H80.433L74.0734 16.0084L79.0607 24.6826Z" fill="black"/>
<path d="M87.6629 7.75739C89.9055 7.75739 90.8762 7.96895 91.7799 8.60365C92.9515 9.44991 93.6544 11.1072 93.6544 13.0113C93.6544 14.7743 93.0853 16.4316 92.0812 17.4894C91.0101 18.6883 89.6043 19.1467 86.96 19.1467H84.9852L84.3492 24.6826H80.2656L82.2405 7.75739H87.6629ZM85.4203 15.4443H86.6922C88.5332 15.4443 89.5038 14.6333 89.5038 13.117C89.5038 11.7066 88.7675 11.1424 87.0604 11.1424H85.9224L85.4203 15.4443Z" fill="black"/>
<path d="M107.879 24.6826H103.16L99.3104 17.9478L98.5406 24.6826H94.457L96.4319 7.75739H101.653C103.394 7.75739 104.566 8.03947 105.469 8.63891C106.674 9.44991 107.344 11.0367 107.344 13.0113C107.344 14.4922 106.909 15.7969 106.038 16.7842C105.469 17.4189 105.001 17.7362 103.93 18.1241L107.879 24.6826ZM99.6117 15.4795H100.348C102.289 15.4795 103.227 14.7038 103.227 13.0818C103.227 11.6008 102.624 11.1072 100.917 11.1072H100.147L99.6117 15.4795Z" fill="black"/>
<path d="M119.694 11.495H114.975L114.64 14.3864H119.226L118.791 18.1241H114.205L113.87 20.945H118.791L118.355 24.6826H109.352L111.326 7.75739H120.129L119.694 11.495Z" fill="black"/>
<path d="M130.708 12.2003C129.637 11.354 128.766 10.9662 127.896 10.9662C126.791 10.9662 126.089 11.5656 126.089 12.4471C126.089 13.2581 126.49 13.6813 128.13 14.4923C130.775 15.7969 131.712 16.9958 131.712 19.2525C131.712 20.8392 131.109 22.2849 130.038 23.378C128.9 24.5064 127.461 25.0705 125.587 25.0705C123.645 25.0705 122.34 24.6122 120.164 23.2017L122.005 19.9577C123.444 20.9803 124.315 21.3329 125.419 21.3329C126.691 21.3329 127.561 20.6629 127.561 19.6404C127.561 18.8646 127.16 18.512 125.687 17.701C122.808 16.1848 121.972 15.0564 121.972 12.7997C121.972 9.73204 124.482 7.47534 127.863 7.47534C129.503 7.47534 130.942 7.96899 132.549 9.02682L130.708 12.2003Z" fill="black"/>
<path d="M143.225 12.2003C142.154 11.354 141.284 10.9662 140.414 10.9662C139.309 10.9662 138.606 11.5656 138.606 12.4471C138.606 13.2581 139.008 13.6813 140.648 14.4923C143.292 15.7969 144.229 16.9958 144.229 19.2525C144.229 20.8392 143.627 22.2849 142.556 23.378C141.418 24.5064 139.979 25.0705 138.104 25.0705C136.163 25.0705 134.857 24.6122 132.682 23.2017L134.523 19.9577C135.962 20.9803 136.832 21.3329 137.937 21.3329C139.209 21.3329 140.079 20.6629 140.079 19.6404C140.079 18.8646 139.677 18.512 138.204 17.701C135.326 16.1848 134.489 15.0564 134.489 12.7997C134.489 9.73204 137 7.47534 140.38 7.47534C142.02 7.47534 143.46 7.96899 145.066 9.02682L143.225 12.2003Z" fill="black"/>
</g>
<defs>
<clipPath id="clip0_510_136">
<rect width="145" height="25" fill="white"/>
</clipPath>
</defs>
</svg>
