<svg width="64" height="114" viewBox="0 0 64 114" fill="none" xmlns="http://www.w3.org/2000/svg">
<mask id="path-1-inside-1_510_526" fill="white">
<path fill-rule="evenodd" clip-rule="evenodd" d="M30.1446 0C22.3213 0 15.9794 6.34198 15.9794 14.1652V57.0742C6.60874 62.1236 0.240234 72.0267 0.240234 83.4174C0.240234 99.9331 13.6289 113.322 30.1446 113.322C46.6603 113.322 60.0489 99.9331 60.0489 83.4174C60.0489 72.0267 53.6804 62.1236 44.3098 57.0742V14.1652C44.3098 6.34199 37.9678 0 30.1446 0Z"/>
</mask>
<path d="M15.9794 57.0742L16.4537 57.9545L16.9794 57.6713V57.0742H15.9794ZM44.3098 57.0742H43.3098V57.6713L43.8354 57.9545L44.3098 57.0742ZM16.9794 14.1652C16.9794 6.89427 22.8736 1 30.1446 1V-1C21.7691 -1 14.9794 5.7897 14.9794 14.1652H16.9794ZM16.9794 57.0742V14.1652H14.9794V57.0742H16.9794ZM1.24023 83.4174C1.24023 72.409 7.39391 62.8364 16.4537 57.9545L15.505 56.1939C5.82358 61.4107 -0.759766 71.6445 -0.759766 83.4174H1.24023ZM30.1446 112.322C14.1812 112.322 1.24023 99.3808 1.24023 83.4174H-0.759766C-0.759766 100.485 13.0766 114.322 30.1446 114.322V112.322ZM59.0489 83.4174C59.0489 99.3808 46.108 112.322 30.1446 112.322V114.322C47.2126 114.322 61.0489 100.485 61.0489 83.4174H59.0489ZM43.8354 57.9545C52.8953 62.8364 59.0489 72.409 59.0489 83.4174H61.0489C61.0489 71.6445 54.4656 61.4107 44.7842 56.1939L43.8354 57.9545ZM43.3098 14.1652V57.0742H45.3098V14.1652H43.3098ZM30.1446 1C37.4155 1 43.3098 6.89427 43.3098 14.1652H45.3098C45.3098 5.7897 38.5201 -1 30.1446 -1V1Z" fill="#1A1A1A" mask="url(#path-1-inside-1_510_526)"/>
<path d="M30.1445 15.7391H49.0315" stroke="black"/>
<path d="M30.1445 40.9218H49.0315" stroke="black"/>
<path d="M30.1445 28.3304H63.9837" stroke="black"/>
<path d="M30.1445 53.5131H63.9837" stroke="black"/>
<circle cx="30.0174" cy="83.0174" r="10.5174" stroke="black"/>
</svg>
